<mxfile host="app.diagrams.net" modified="2024-03-28T17:19:04.090Z" agent="Mozilla/5.0 (Windows NT 10.0; Win64; x64) AppleWebKit/537.36 (KHTML, like Gecko) Chrome/121.0.0.0 Safari/537.36 OPR/107.0.0.0" version="22.1.19" etag="yLqDcisJicJDJeeIxrV0" type="github">
  <diagram name="Страница — 1" id="Gimy71sFfq-hgSw7aZen">
    <mxGraphModel>
      <root>
        <mxCell id="0" />
        <mxCell id="1" parent="0" />
      </root>
    </mxGraphModel>
  </diagram>
</mxfile>
